:FULLY-SPECIFIED
:FORCE-ALL-JOINTS-BE-3DOF
:DEGREES
114
root 9.20834 16.0539 -21.2878 5.16002 3.50546 4.70416
lfemur 10.4513 1.69589 -26.9272
ltibia 5.0297 -0 0
lfoot -14.5987 1.27323 0.0423556
ltoes -5.18606 0 0
rfemur -35.909 10.5671 6.69046
rtibia 29.9396 -0 0
rfoot -19.5166 -12.7955 0.142078
rtoes -18.8818 0 0
lowerback -7.83124 -3.10924 -5.89223
upperback -1.35596 -3.71849 2.15703
thorax 3.53763 -1.93674 5.09787
lowerneck -19.9623 -5.17557 -13.0393
upperneck 20.8536 -6.03286 11.3657
head 10.7798 -2.48873 5.38847
lclavicle -8.42517e-14 1.34913e-14 6.21766e-31
lhumerus -30.6431 -23.0242 95.2145
lradius 38.0916 -0 0
lwrist 8.74917 0 0
lhand -8.87573 -23.2972 0.110758
lfingers 7.12502 -0 0
lthumb 17.0606 5.9005 0.0828703
rclavicle -8.42517e-14 1.34913e-14 6.21766e-31
rhumerus -46.4106 8.25234 -84.471
rradius 34.4106 -0 0
rwrist -19.0849 0 0
rhand -30.001 -23.072 -0.00184582
rfingers 7.12502 -0 0
rthumb -3.31839 -53.0258 -0.00178706
115
root 9.2119 16.0507 -21.1648 5.16562 3.80497 4.78889
lfemur 11.2162 1.60188 -27.039
ltibia 4.47085 -0 0
lfoot -14.6879 1.15707 0.0383725
ltoes -5.21443 0 0
rfemur -36.6124 10.7165 6.45974
rtibia 29.5024 -0 0
rfoot -20.0857 -12.8558 0.128673
rtoes -19.2174 0 0
lowerback -7.88034 -3.18193 -5.96241
upperback -1.33696 -3.80624 2.1479
thorax 3.59699 -1.98323 5.11907
lowerneck -19.9149 -5.19524 -13.0646
upperneck 20.9171 -6.05598 11.3351
head 10.797 -2.50657 5.37965
lclavicle -8.59202e-14 1.35825e-14 5.6331e-31
lhumerus -30.462 -23.3944 95.3165
lradius 38.4298 -0 0
lwrist 8.99493 0 0
lhand -9.10534 -23.415 0.100338
lfingers 7.12502 -0 0
lthumb 16.8401 5.80866 0.0750743
rclavicle -8.59202e-14 1.35825e-14 5.6331e-31
rhumerus -46.477 8.14697 -84.3347
rradius 34.3411 -0 0
rwrist -19.0795 0 0
rhand -30.0097 -23.0201 -0.00167228
rfingers 7.12502 -0 0
rthumb -3.3268 -52.9738 -0.00161904
116
root 9.21545 16.0474 -21.0418 5.17166 4.10448 4.87368
lfemur 11.9812 1.50937 -27.1521
ltibia 3.91199 -0 0
lfoot -14.7771 1.04092 0.0342086
ltoes -5.24279 0 0
rfemur -37.3167 10.8631 6.22706
rtibia 29.0651 -0 0
rfoot -20.6547 -12.9161 0.114669
rtoes -19.553 0 0
lowerback -7.92935 -3.25468 -6.03254
upperback -1.31794 -3.894 2.13875
thorax 3.65633 -2.02974 5.14023
lowerneck -19.8675 -5.21489 -13.0899
upperneck 20.9807 -6.07907 11.3044
head 10.8142 -2.52441 5.37083
lclavicle -8.75887e-14 1.36738e-14 5.02196e-31
lhumerus -30.2811 -23.7649 95.4176
lradius 38.7679 -0 0
lwrist 9.24069 0 0
lhand -9.33492 -23.5328 0.0894449
lfingers 7.12502 -0 0
lthumb 16.6197 5.71685 0.066925
rclavicle -8.75887e-14 1.36738e-14 5.02196e-31
rhumerus -46.5436 8.04175 -84.1984
rradius 34.2717 -0 0
rwrist -19.0742 0 0
rhand -30.0184 -22.9682 -0.00149085
rfingers 7.12502 -0 0
rthumb -3.33521 -52.9217 -0.00144338
117
root 9.21901 16.0442 -20.9187 5.17815 4.40397 4.95853
lfemur 12.7464 1.41837 -27.2663
ltibia 3.35313 -0 0
lfoot -14.8663 0.924769 0.0298639
ltoes -5.27115 0 0
rfemur -38.0219 11.0069 5.99245
rtibia 28.6279 -0 0
rfoot -21.2237 -12.9761 0.100067
rtoes -19.8886 0 0
lowerback -7.97828 -3.32749 -6.1026
upperback -1.29891 -3.98175 2.12957
thorax 3.71567 -2.07627 5.16133
lowerneck -19.8201 -5.23452 -13.1153
upperneck 21.0443 -6.10212 11.2738
head 10.8313 -2.54224 5.36201
lclavicle -8.92572e-14 1.3765e-14 4.38425e-31
lhumerus -30.1004 -24.1357 95.5176
lradius 39.1061 -0 0
lwrist 9.48644 0 0
lhand -9.56448 -23.6505 0.0780804
lfingers 7.12502 -0 0
lthumb 16.3993 5.62506 0.0584225
rclavicle -8.92572e-14 1.3765e-14 4.38425e-31
rhumerus -46.6104 7.93668 -84.0619
rradius 34.2022 -0 0
rwrist -19.0688 0 0
rhand -30.0271 -22.9162 -0.00130153
rfingers 7.12502 -0 0
rthumb -3.34361 -52.8697 -0.00126009
118
root 9.22256 16.0409 -20.7957 5.18509 4.70345 5.04345
lfemur 13.5117 1.32891 -27.3818
ltibia 2.79428 -0 0
lfoot -14.9554 0.808629 0.0253383
ltoes -5.29952 0 0
rfemur -38.7281 11.1478 5.75594
rtibia 28.1907 -0 0
rfoot -21.7928 -13.0361 0.0848702
rtoes -20.2242 0 0
lowerback -8.02713 -3.40036 -6.17261
upperback -1.27986 -4.06949 2.12035
thorax 3.77498 -2.12282 5.18239
lowerneck -19.7726 -5.25413 -13.1406
upperneck 21.1079 -6.12514 11.2431
head 10.8485 -2.56008 5.35318
lclavicle -9.09257e-14 1.38563e-14 3.71997e-31
lhumerus -29.9199 -24.5067 95.6167
lradius 39.4442 -0 0
lwrist 9.7322 0 0
lhand -9.79401 -23.7682 0.0662445
lfingers 7.12502 -0 0
lthumb 16.1789 5.53331 0.049567
rclavicle -9.09257e-14 1.38563e-14 3.71997e-31
rhumerus -46.6774 7.83178 -83.9253
rradius 34.1328 -0 0
rwrist -19.0635 0 0
rhand -30.0358 -22.8643 -0.00110432
rfingers 7.12502 -0 0
rthumb -3.35202 -52.8177 -0.00106916
119
root 9.22612 16.0377 -20.6727 5.19247 5.00292 5.12844
lfemur 14.2772 1.241 -27.4985
ltibia 2.23542 -0 0
lfoot -15.0446 0.692497 0.0206321
ltoes -5.32788 0 0
rfemur -39.4352 11.2858 5.51756
rtibia 27.7534 -0 0
rfoot -22.3618 -13.0958 0.0690786
rtoes -20.5598 0 0
lowerback -8.07588 -3.4733 -6.24256
upperback -1.26079 -4.15724 2.11111
thorax 3.83428 -2.16939 5.2034
lowerneck -19.7252 -5.27371 -13.166
upperneck 21.1715 -6.14813 11.2123
head 10.8657 -2.57791 5.34435
lclavicle -9.25941e-14 1.39475e-14 3.02912e-31
lhumerus -29.7396 -24.8781 95.7147
lradius 39.7823 -0 0
lwrist 9.97796 0 0
lhand -10.0235 -23.8858 0.0539372
lfingers 7.12502 -0 0
lthumb 15.9585 5.4416 0.0403587
rclavicle -9.25941e-14 1.39475e-14 3.02912e-31
rhumerus -46.7447 7.72703 -83.7887
rradius 34.0634 -0 0
rwrist -19.0581 0 0
rhand -30.0445 -22.8124 -0.000899232
rfingers 7.12502 -0 0
rthumb -3.36043 -52.7656 -0.000870603
120
root 9.22967 16.0344 -20.5497 5.20031 5.30238 5.21352
lfemur 15.0429 1.15466 -27.6163
ltibia 1.67657 -0 0
lfoot -15.1338 0.576372 0.0157451
ltoes -5.35625 0 0
rfemur -40.1433 11.421 5.27735
rtibia 27.3162 -0 0
rfoot -22.9307 -13.1555 0.052694
rtoes -20.8953 0 0
lowerback -8.12456 -3.54629 -6.31246
upperback -1.24171 -4.24498 2.10183
thorax 3.89357 -2.21599 5.22436
lowerneck -19.6777 -5.29328 -13.1914
upperneck 21.2351 -6.17108 11.1816
head 10.8829 -2.59574 5.3355
lclavicle -9.42626e-14 1.40388e-14 2.3117e-31
lhumerus -29.5594 -25.2497 95.8118
lradius 40.1205 -0 0
lwrist 10.2237 0 0
lhand -10.253 -24.0034 0.0411588
lfingers 7.12502 -0 0
lthumb 15.7381 5.34992 0.0307976
rclavicle -9.42626e-14 1.40388e-14 2.3117e-31
rhumerus -46.8122 7.62245 -83.652
rradius 33.9939 -0 0
rwrist -19.0528 0 0
rhand -30.0532 -22.7605 -0.000686253
rfingers 7.12502 -0 0
rthumb -3.36884 -52.7136 -0.000664405
